<svg width="24" height="23" viewBox="0 0 24 23" fill="none" xmlns="http://www.w3.org/2000/svg">
<g clip-path="url(#clip0)">
<path d="M23.277 3.83322H0.340698V19.1667H23.277V3.83322Z" fill="#F0F0F0"/>
<path d="M23.277 5.74973H0.340698V7.66623H23.277V5.74973Z" fill="#E63F19"/>
<path d="M23.277 9.58322H0.340698V11.4997H23.277V9.58322Z" fill="#E63F19"/>
<path d="M23.277 13.4162H0.340698V15.3327H23.277V13.4162Z" fill="#E63F19"/>
<path d="M23.277 17.2497H0.340698V19.1662H23.277V17.2497Z" fill="#E63F19"/>
<path d="M11.8088 3.83322H0.340698V12.0897H11.8088V3.83322Z" fill="#2E52B2"/>
<path d="M4.81251 7.21555L4.62781 7.78533H4.0304L4.5138 8.1373L4.3291 8.70704L4.81251 8.35508L5.29561 8.70704L5.11095 8.1373L5.59436 7.78533H4.9969L4.81251 7.21555Z" fill="#F0F0F0"/>
<path d="M4.9969 9.8415L4.81251 9.27176L4.62781 9.8415H4.0304L4.5138 10.1935L4.3291 10.7633L4.81251 10.4112L5.29561 10.7633L5.11095 10.1935L5.59436 9.8415H4.9969Z" fill="#F0F0F0"/>
<path d="M2.47204 9.8415L2.28761 9.27176L2.10291 9.8415H1.50549L1.9889 10.1935L1.8042 10.7633L2.28761 10.4112L2.77075 10.7633L2.5861 10.1935L3.06942 9.8415H2.47204Z" fill="#F0F0F0"/>
<path d="M2.28761 7.21555L2.10291 7.78533H1.50549L1.9889 8.1373L1.8042 8.70704L2.28761 8.35508L2.77075 8.70704L2.5861 8.1373L3.06942 7.78533H2.47204L2.28761 7.21555Z" fill="#F0F0F0"/>
<path d="M4.81251 5.1593L4.62781 5.72914H4.0304L4.5138 6.08114L4.3291 6.65089L4.81251 6.29888L5.29561 6.65089L5.11095 6.08114L5.59436 5.72914H4.9969L4.81251 5.1593Z" fill="#F0F0F0"/>
<path d="M2.28761 5.1593L2.10291 5.72914H1.50549L1.9889 6.08114L1.8042 6.65089L2.28761 6.29888L2.77075 6.65089L2.5861 6.08114L3.06942 5.72914H2.47204L2.28761 5.1593Z" fill="#F0F0F0"/>
<path d="M7.33725 7.21555L7.15259 7.78533H6.55518L7.03854 8.1373L6.85393 8.70704L7.33725 8.35508L7.82043 8.70704L7.63573 8.1373L8.11914 7.78533H7.52172L7.33725 7.21555Z" fill="#F0F0F0"/>
<path d="M7.52172 9.8415L7.33725 9.27176L7.15259 9.8415H6.55518L7.03854 10.1935L6.85393 10.7633L7.33725 10.4112L7.82043 10.7633L7.63573 10.1935L8.11914 9.8415H7.52172Z" fill="#F0F0F0"/>
<path d="M10.0467 9.8415L9.86228 9.27176L9.67758 9.8415H9.0802L9.56352 10.1935L9.37887 10.7633L9.86228 10.4112L10.3454 10.7633L10.1607 10.1935L10.6441 9.8415H10.0467Z" fill="#F0F0F0"/>
<path d="M9.86228 7.21555L9.67758 7.78533H9.0802L9.56352 8.1373L9.37887 8.70704L9.86228 8.35508L10.3454 8.70704L10.1607 8.1373L10.6441 7.78533H10.0467L9.86228 7.21555Z" fill="#F0F0F0"/>
<path d="M7.33725 5.1593L7.15259 5.72914H6.55518L7.03854 6.08114L6.85393 6.65089L7.33725 6.29888L7.82043 6.65089L7.63573 6.08114L8.11914 5.72914H7.52172L7.33725 5.1593Z" fill="#F0F0F0"/>
<path d="M9.86228 5.1593L9.67758 5.72914H9.0802L9.56352 6.08114L9.37887 6.65089L9.86228 6.29888L10.3454 6.65089L10.1607 6.08114L10.6441 5.72914H10.0467L9.86228 5.1593Z" fill="#F0F0F0"/>
</g>
<defs>
<clipPath id="clip0">
<rect x="0.340698" width="22.9363" height="23" fill="white"/>
</clipPath>
</defs>
</svg>
