<svg width="188" height="46" viewBox="0 0 188 46" fill="none" xmlns="http://www.w3.org/2000/svg">
<path d="M83.5109 25.9945C83.635 26.1219 83.635 26.1219 83.635 26.2493V37.8449C83.635 39.1191 82.5183 40.2659 81.2776 40.2659C80.0368 40.2659 79.0443 39.1191 79.0443 37.8449V26.2493C79.0443 26.1219 79.0443 26.1219 79.0443 25.9945C79.0443 25.867 79.0443 25.867 79.0443 25.867C79.0443 23.1911 76.935 21.0249 74.3295 21.0249C71.7239 21.0249 69.6147 23.1911 69.6147 25.867V37.8449C69.6147 39.1191 68.498 40.2659 67.3814 40.2659C66.2647 40.2659 65.024 39.1191 65.024 37.8449V25.867C65.024 23.1911 62.9147 21.0249 60.3092 21.0249C57.7037 21.0249 55.4703 23.1911 55.4703 25.867V37.8449C55.4703 39.1191 54.3537 40.2659 53.237 40.2659C51.9963 40.2659 50.8796 39.1191 50.8796 37.8449V25.867C50.8796 20.6427 54.9741 16.3102 60.1851 16.3102C62.9147 16.3102 65.5203 17.5845 67.1332 19.6233C68.8703 17.5845 71.3517 16.3102 74.0813 16.3102C79.2924 16.3102 83.3868 20.5152 83.3868 25.867C83.5109 25.9945 83.5109 25.9945 83.5109 25.9945Z" fill="white"/>
<path d="M91.9479 28.1607C91.9479 32.1108 95.1738 35.4238 99.0201 35.4238C102.866 35.4238 106.092 32.1108 106.092 28.1607C106.092 24.2105 102.866 20.8975 99.0201 20.8975C95.1738 20.8975 91.9479 24.2105 91.9479 28.1607ZM87.3572 28.1607C87.3572 21.5346 92.6923 16.1828 99.0201 16.1828C105.472 16.1828 110.683 21.5346 110.683 28.1607C110.683 34.7867 105.472 40.1385 99.0201 40.1385C92.5683 40.1385 87.3572 34.7867 87.3572 28.1607Z" fill="white"/>
<path d="M137.855 28.1607V37.7175C137.855 38.9917 136.738 40.1385 135.498 40.1385C134.257 40.1385 133.264 38.9917 133.264 37.7175V28.1607C133.264 24.2105 130.038 20.8975 126.192 20.8975C122.346 20.8975 119.12 24.2105 119.12 28.1607V37.7175C119.12 38.9917 118.003 40.1385 116.762 40.1385C115.522 40.1385 114.529 38.9917 114.529 37.7175V28.1607C114.529 21.5346 119.864 16.1828 126.192 16.1828C132.52 16.1828 137.855 21.6621 137.855 28.1607Z" fill="white"/>
<path d="M182.149 28.4155C182.149 24.4654 179.171 21.0249 175.201 21.0249C171.355 21.0249 168.005 24.4654 168.005 28.4155C168.005 32.3656 171.355 35.5512 175.201 35.5512C179.171 35.4238 182.149 32.4931 182.149 28.4155ZM186.74 28.4155V37.7174C186.74 39.1191 185.747 40.1385 184.382 40.1385C183.514 40.1385 182.149 39.1191 182.149 37.7174C180.164 39.5014 177.931 40.1385 175.201 40.1385C168.625 40.1385 163.414 35.169 163.414 28.4155C163.414 21.662 168.625 16.3102 175.201 16.3102C181.901 16.3102 186.74 21.662 186.74 28.4155Z" fill="white"/>
<path d="M159.816 38.2271C159.816 39.374 159.196 40.1385 158.079 40.3933C157.086 40.7756 155.846 40.7756 154.233 40.7756C147.781 40.7756 144.183 37.3352 144.183 30.8366V14.0166H141.081C139.84 14.0166 138.848 13.1246 138.848 11.8504C138.848 10.7036 139.84 9.68421 141.081 9.68421H144.183V3.18559C144.183 1.78393 145.299 0.637115 146.54 0.637115C147.905 0.637115 148.897 1.78393 148.897 3.18559V9.55678H156.342C157.459 9.55678 158.451 10.4487 158.451 11.723C158.451 12.9972 157.459 13.8892 156.342 13.8892H148.897V30.5817C148.897 34.5318 150.883 36.4432 155.101 36.4432C156.218 36.4432 156.838 36.3158 157.583 36.3158C159.071 36.4432 159.816 37.0803 159.816 38.2271Z" fill="white"/>
<path d="M21.9706 45.3629C10.5559 45.3629 1.37448 35.8061 1.49856 23.9557C1.7467 12.4875 11.0522 3.1856 22.3429 3.44045C33.3854 3.6953 42.4427 12.9972 42.3186 24.5928C42.1946 35.9335 33.2613 45.3629 21.9706 45.3629ZM21.9706 7.64543C12.9133 7.77286 5.84112 15.1634 5.59297 24.0831C5.4689 33.3851 12.7892 41.0305 21.7225 41.1579C30.6558 41.2853 38.1001 33.8948 38.1001 24.5928C38.2242 15.1634 30.9039 7.64543 21.9706 7.64543Z" fill="white"/>
<path d="M21.8466 19.241C22.2188 18.8587 22.591 18.6039 23.0873 18.2216C26.4373 15.928 30.9039 18.0942 31.5243 22.1717C31.5243 22.554 31.5243 22.9363 31.6484 23.3186C31.6484 25.4848 31.6484 27.7784 31.6484 29.9446C31.6484 30.964 30.7799 31.6011 29.9114 31.3463C29.291 31.2188 28.9188 30.5817 28.9188 29.9446C28.9188 27.651 28.9188 25.2299 28.9188 22.9363C28.9188 21.5346 28.0503 20.3878 26.6855 20.133C24.9484 19.7507 23.2114 21.1524 23.2114 22.9363C23.2114 25.2299 23.2114 27.5235 23.2114 29.9446C23.2114 30.3269 23.0873 30.7091 22.8392 30.964C22.467 31.4737 21.8466 31.6011 21.3503 31.3463C20.854 31.0914 20.4818 30.5817 20.4818 30.072C20.4818 27.7784 20.4818 25.3573 20.4818 23.0637C20.4818 21.6621 19.6133 20.5152 18.3726 20.2604C16.6355 19.8781 15.0226 21.1524 15.0226 22.9363C15.0226 25.3573 15.0226 27.7784 15.0226 30.1994C15.0226 31.0914 14.4022 31.7285 13.5337 31.6011C12.9133 31.6011 12.293 30.964 12.293 30.1994C12.293 27.7784 12.293 25.2299 12.293 22.8089C12.293 20.3878 14.1541 18.0942 16.6355 17.5845C18.6207 17.2022 20.3577 17.7119 21.7225 19.1136C21.7225 19.1136 21.8466 19.1136 21.8466 19.241Z" fill="white"/>
</svg>
